<?xml version="1.0" standalone="no"?><!DOCTYPE svg PUBLIC "-//W3C//DTD SVG 1.1//EN" "http://www.w3.org/Graphics/SVG/1.1/DTD/svg11.dtd"><svg t="1689835549098" class="icon" viewBox="0 0 1366 1024" version="1.1" xmlns="http://www.w3.org/2000/svg" p-id="6046" xmlns:xlink="http://www.w3.org/1999/xlink" width="266.796875" height="200"><path d="M49.511149 1014.682337l87.639416-95.606637a113.817424 113.817424 0 0 1 83.655807-36.990663H910.539963a113.817424 113.817424 0 0 0 113.817424-113.817424V398.360985a170.726136 170.726136 0 0 0-170.726136-170.726137H170.726705a170.726136 170.726136 0 0 0-170.726136 170.726137v596.972389a28.454356 28.454356 0 0 0 49.51058 19.348963z" fill="#DCDAC8" p-id="6047"></path><path d="M398.361554 711.358901h625.995833V398.360985a170.726136 170.726136 0 0 0-170.726136-170.726137H284.54413v369.906629a113.817424 113.817424 0 0 0 113.817424 113.817424z" fill="#CCC9B4" p-id="6048"></path><path d="M1316.29908 787.047488l-87.639417-95.606636a113.817424 113.817424 0 0 0-83.655807-36.990663H455.270266a113.817424 113.817424 0 0 1-113.817424-113.817424V170.726136a170.726136 170.726136 0 0 1 170.726136-170.726136h682.904545a170.726136 170.726136 0 0 1 170.726136 170.726136v596.97239a28.454356 28.454356 0 0 1-49.510579 19.348962z" fill="#F2EFDC" p-id="6049"></path></svg>