<?xml version="1.0" standalone="no"?><!DOCTYPE svg PUBLIC "-//W3C//DTD SVG 1.1//EN" "http://www.w3.org/Graphics/SVG/1.1/DTD/svg11.dtd"><svg t="1692339289958" class="icon" viewBox="0 0 1024 1024" version="1.1" xmlns="http://www.w3.org/2000/svg" p-id="5991" xmlns:xlink="http://www.w3.org/1999/xlink" width="200" height="200"><path d="M910.2 362.7v448c0 82.4-67 149.3-149.3 149.3H263.1c-82.4 0-149.3-67-149.3-149.3V213.3c0-82.4 67-149.3 149.3-149.3h348.4l298.7 298.7z" fill="#F4B516" p-id="5992"></path><path d="M663.9 316.9l246.3 170.2V362.7L736.5 263z" fill="#D37E0D" p-id="5993"></path><path d="M286.5 819.6c-17 0-29-16.6-23.6-32.7 22.8-68.9 80.1-223 137.3-223 73.8 0 147.6 255.7 147.6 255.7H286.5z" fill="#F4DDA8" p-id="5994"></path><path d="M910.2 362.7H760.9c-82.5 0-149.3-66.9-149.3-149.3V64l298.6 298.7z" fill="#F9D27A" p-id="5995"></path><path d="M384.3 819.6S482.6 478.9 581 478.9c70.7 0 141.3 175.9 175.5 274.9 11.1 32.3-13 65.8-47.2 65.8h-325z" fill="#FFFFFF" p-id="5996"></path><path d="M437.7 408.2m-74.7 0a74.7 74.7 0 1 0 149.4 0 74.7 74.7 0 1 0-149.4 0Z" fill="#FFFFFF" p-id="5997"></path></svg>