<?xml version="1.0" standalone="no"?><!DOCTYPE svg PUBLIC "-//W3C//DTD SVG 1.1//EN" "http://www.w3.org/Graphics/SVG/1.1/DTD/svg11.dtd"><svg t="1690181476842" class="icon" viewBox="0 0 1024 1024" version="1.1" xmlns="http://www.w3.org/2000/svg" p-id="11356" xmlns:xlink="http://www.w3.org/1999/xlink" width="200" height="200"><path d="M952.128 520.704l-144-186.688A35.52 35.52 0 0 0 768 322.112a37.248 37.248 0 0 0-24.064 35.2v112h-288C416.256 469.312 384 502.784 384 544s32.256 74.688 72 74.688h288v112c0 15.808 9.6 29.952 24.064 35.2a34.944 34.944 0 0 0 40.064-11.904l144-186.688a38.4 38.4 0 0 0 0-46.592z m-320.128 300.608H343.424c-39.424 0-71.424-31.04-71.424-69.312v-416-0.512c0-38.016 32.256-68.8 72-68.8h288c39.744 0 72-31.04 72-69.376C704 159.04 671.744 128 632 128H272C192.448 128 128 190.08 128 266.688v554.624C128 897.92 192.448 960 272 960h360c39.744 0 72-31.04 72-69.312 0-38.336-32.256-69.376-72-69.376z" fill="#FE508B" p-id="11357"></path></svg>