<?xml version="1.0" standalone="no"?><!DOCTYPE svg PUBLIC "-//W3C//DTD SVG 1.1//EN" "http://www.w3.org/Graphics/SVG/1.1/DTD/svg11.dtd"><svg t="1689835609695" class="icon" viewBox="0 0 1024 1024" version="1.1" xmlns="http://www.w3.org/2000/svg" p-id="12070" xmlns:xlink="http://www.w3.org/1999/xlink" width="200" height="200"><path d="M736 192c123.712 0 224 100.288 224 224 0 74.848-36.704 141.12-93.104 181.792 14.464-24.592 19.52-48.624 13.216-70.56-10.352-36.128-49.76-60.768-107.28-72.672-54.176-76.048-140.752-127.392-239.584-133.872C569.04 244.64 646.368 192 736 192z" fill="#FFD266" p-id="12071"></path><path d="M512 320c107.616 0 202.816 53.12 260.832 134.56 57.536 11.904 96.928 36.544 107.28 72.656 10 34.864-8.608 74.992-48.128 114.24C831.216 817.488 688.256 960 512 960c-114.4 0-214.8-60.048-271.36-150.352a251.52 251.52 0 0 1-23.568-6.672l-7.568-2.72c-35.808-13.648-59.872-34.272-67.648-61.344-10.192-35.584 9.408-76.672 50.64-116.688C201.696 453.76 341.232 320 512 320z m201.184 331.312c-48.752 29.104-109.408 55.024-175.744 74.032-63.648 18.24-126.24 28.352-181.328 30.16l16.8 63.264 3.488-0.16 11.872-0.832 6-0.48 12.144-1.152 6.128-0.656 12.368-1.488 6.24-0.816 12.576-1.808c8.448-1.28 16.96-2.72 25.552-4.304l12.96-2.48 6.512-1.328 13.104-2.816 13.2-3.04 6.624-1.632 13.312-3.392c6.672-1.76 13.376-3.584 20.096-5.52l6.704-1.936c4.448-1.328 8.864-2.656 13.264-4.032l13.088-4.16 6.48-2.16 12.8-4.4 12.608-4.56 6.24-2.32 12.288-4.752a837.472 837.472 0 0 0 23.952-9.92l11.632-5.12 5.728-2.608 11.264-5.296 5.552-2.688 10.896-5.456c3.584-1.84 7.136-3.68 10.64-5.552l10.384-5.648 4.864-2.72zM528 392h-8v63.856l12.96 0.224a135.52 135.52 0 0 1 98.464 47.6l5.2 6.08 48.736-41.648-9.04-10.288A199.6 199.6 0 0 0 528 392z" fill="#84A2FF" p-id="12072"></path></svg>